<svg xmlns="http://www.w3.org/2000/svg" width="142.493" height="53.5" viewBox="0 0 142.493 53.5"><defs><style>.a{fill:#da291c;}</style></defs><g transform="translate(-52.761 -164.154)"><path class="a" d="M156.981,164.154c1.985.021,3.969,0,5.954.006q.011,9.125,0,18.245-2.977,0-5.956,0,0-9.124,0-18.253m13.175,20.591c5.453-5.629,10.846-11.326,16.294-16.962,1.4,1.476,2.839,2.911,4.208,4.417-5.392,5.68-10.837,11.3-16.232,16.977-1.447-1.453-2.846-2.955-4.269-4.432M65.714,181.4a16.79,16.79,0,0,1,4.583-.5,16.613,16.613,0,0,1,13.255,6.7,18.27,18.27,0,0,1,3.22,6.677c-2.344.009-4.688,0-7.032,0a11.382,11.382,0,0,0-4.679-5.165,10.07,10.07,0,0,0-3.675-1.242,12.765,12.765,0,0,0-3.6.185,10.189,10.189,0,0,0-5.215,3.053,10.5,10.5,0,0,0-3.158,6.941A11.407,11.407,0,0,0,61,205.3a11.706,11.706,0,0,0,5.383,4.57,10.374,10.374,0,0,0,11-2.344,13.233,13.233,0,0,0,2.378-3.433q3.5-.017,7,0a17.932,17.932,0,0,1-3.427,7,19.79,19.79,0,0,1-3.505,3.321,16.854,16.854,0,0,1-20.455-.81,19.449,19.449,0,0,1-4.48-5.5,19.666,19.666,0,0,1-1.827-12.547,17.828,17.828,0,0,1,4.9-9.416,15.885,15.885,0,0,1,7.74-4.73m24.629-.5h6.682q0,18.371,0,36.741c-2.227.006-4.452,0-6.678,0q0-18.371,0-36.739m20.189,7.314a21.16,21.16,0,0,1,3.843-.151,16.967,16.967,0,0,1,4.385.878,8.449,8.449,0,0,1,3.865,2.378,8.932,8.932,0,0,1,1.669,5.211q-.005,10.555,0,21.112c-2.259-.011-4.52.049-6.777-.03-.022-.957.018-1.916-.015-2.872a11.981,11.981,0,0,1-7.117,2.789,9.562,9.562,0,0,1-4.809-.509,6.726,6.726,0,0,1-4.186-4.492,11.7,11.7,0,0,1,.238-6.857,7.723,7.723,0,0,1,4.858-4.53c2.721-1,5.63-1.159,8.444-1.739a2.5,2.5,0,0,0,2.3-1.581,2.938,2.938,0,0,0-.845-3.009,5.986,5.986,0,0,0-3.281-.837,5.768,5.768,0,0,0-2.96.6,4.647,4.647,0,0,0-1.9,3.345c-2.237-.049-4.477,0-6.714-.038.278-2.3.738-4.745,2.317-6.486a9.543,9.543,0,0,1,6.7-3.18m4.925,15.884c-1.322.319-2.624.729-3.968.942a5.2,5.2,0,0,0-2.954,1.442,4.384,4.384,0,0,0-.314,4.76,2.944,2.944,0,0,0,1.719,1.229,6.66,6.66,0,0,0,6-1.849c1.587-2.071,1.307-4.875,1.3-7.355a14.8,14.8,0,0,1-1.78.831m24.764-15.047a12.218,12.218,0,0,1,4.179-.8c.016,2.378.139,4.76.092,7.14a8.34,8.34,0,0,0-3.725.064,7.214,7.214,0,0,0-5.091,5.995c-.018.627-.181,1.24-.186,1.869,0,4.777.006,9.552,0,14.329-2.221-.006-4.444.017-6.665-.013q-.038-14.109.013-28.222c2.153-.021,4.3.064,6.454.147,0,1.161-.027,2.323.015,3.486a10.807,10.807,0,0,1,4.916-3.993m16.641-.729a15.93,15.93,0,0,1,3-.117c5.992.079,11.461,4.9,12.89,10.913,1.233,4.915.034,10.585-3.532,14.15a13.489,13.489,0,0,1-7.9,4.374c-1.448.013-2.9.006-4.343,0a14.512,14.512,0,0,1-10.212-7.613,15.722,15.722,0,0,1-.052-14.005,14.254,14.254,0,0,1,10.152-7.706m.538,6.967a7.56,7.56,0,0,0-4.711,3.759,8.03,8.03,0,0,0,.618,8.689,7.137,7.137,0,0,0,8.919,2.39,8.011,8.011,0,0,0,3.852-4.283,8.317,8.317,0,0,0-.316-6.6,7.4,7.4,0,0,0-5.179-4.012,12.623,12.623,0,0,0-3.182.058m20.005,1.061q8.923,0,17.849,0c0,2.062,0,4.125,0,6.189-5.948-.008-11.895.013-17.843,0-.009-2.066.007-4.131,0-6.2Z" transform="translate(0 0)"/></g></svg>