<svg id="Grupo_111" data-name="Grupo 111" xmlns="http://www.w3.org/2000/svg" width="58.23" height="58.23" viewBox="0 0 58.23 58.23">
  <path id="Trazado_7" data-name="Trazado 7" d="M300.364,134H283.549a4.858,4.858,0,0,0-4.849,4.849V172.24a4.858,4.858,0,0,0,4.849,4.849h16.816a4.858,4.858,0,0,0,4.849-4.849V138.849A4.858,4.858,0,0,0,300.364,134Zm1.616,38.251a1.614,1.614,0,0,1-1.616,1.616H283.549a1.614,1.614,0,0,1-1.616-1.616V161.2h2.075a1.616,1.616,0,1,0,0-3.232h-2.075v-4.012h6.923a1.616,1.616,0,0,0,0-3.232h-6.923V138.849a1.614,1.614,0,0,1,1.616-1.616h16.816a1.614,1.614,0,0,1,1.616,1.616v33.4Z" transform="translate(-246.983 -118.869)" fill="#da291c"/>
  <path id="Trazado_8" data-name="Trazado 8" d="M23.664,2H6.849A4.858,4.858,0,0,0,2,6.849V40.24A4.86,4.86,0,0,0,6.849,45.1H23.664a4.858,4.858,0,0,0,4.849-4.849V6.849A4.858,4.858,0,0,0,23.664,2Zm1.616,38.251a1.614,1.614,0,0,1-1.616,1.616H6.849a1.614,1.614,0,0,1-1.616-1.616V6.849A1.614,1.614,0,0,1,6.849,5.232H23.664a1.614,1.614,0,0,1,1.616,1.616Z" transform="translate(-2 -2)" fill="#da291c"/>
  <path id="Trazado_9" data-name="Trazado 9" d="M367.943,182.8h-4.127a1.616,1.616,0,0,0,0,3.232h4.127a1.616,1.616,0,1,0,0-3.232Z" transform="translate(-320.911 -162.075)" fill="#da291c"/>
  <path id="Trazado_10" data-name="Trazado 10" d="M375.43,432.9h-1.914a1.616,1.616,0,0,0,0,3.232h1.926a1.614,1.614,0,0,0,1.616-1.616A1.639,1.639,0,0,0,375.43,432.9Z" transform="translate(-329.499 -383.507)" fill="#da291c"/>
  <path id="Trazado_11" data-name="Trazado 11" d="M92.959,52.516A1.614,1.614,0,0,0,91.343,50.9H87.216a1.616,1.616,0,1,0,0,3.232h4.127A1.629,1.629,0,0,0,92.959,52.516Z" transform="translate(-76.017 -45.295)" fill="#da291c"/>
  <path id="Trazado_12" data-name="Trazado 12" d="M56.342,301H54.416a1.616,1.616,0,1,0,0,3.232h1.926a1.616,1.616,0,1,0,0-3.232Z" transform="translate(-46.977 -266.727)" fill="#da291c"/>
  <path id="Trazado_13" data-name="Trazado 13" d="M141.042,301h-1.926a1.616,1.616,0,1,0,0,3.232h1.926a1.616,1.616,0,1,0,0-3.232Z" transform="translate(-121.968 -266.727)" fill="#da291c"/>
  <path id="Trazado_14" data-name="Trazado 14" d="M304.516,5.232h7.52v7.52a1.616,1.616,0,1,0,3.232,0V3.616A1.614,1.614,0,0,0,313.652,2h-9.136a1.616,1.616,0,1,0,0,3.232Z" transform="translate(-268.409 -2)" fill="#da291c"/>
  <path id="Trazado_15" data-name="Trazado 15" d="M111.952,411.236h-7.52v-7.52a1.616,1.616,0,0,0-3.232,0v9.136a1.614,1.614,0,0,0,1.616,1.616h9.136a1.616,1.616,0,1,0,0-3.232Z" transform="translate(-89.829 -356.238)" fill="#da291c"/>
</svg>
