<svg xmlns="http://www.w3.org/2000/svg" width="67.25" height="67.279" viewBox="0 0 67.25 67.279">
  <g id="Grupo_123" data-name="Grupo 123" transform="translate(-2 -1.875)">
    <path id="Trazado_52" data-name="Trazado 52" d="M391.341,113.045a1.878,1.878,0,0,0,0-2.648,4.619,4.619,0,0,1,0-6.528,1.873,1.873,0,0,0-2.648-2.648,8.359,8.359,0,0,0,0,11.811A1.9,1.9,0,0,0,391.341,113.045Z" transform="translate(-333.373 -85.718)" fill="#da291c"/>
    <path id="Trazado_53" data-name="Trazado 53" d="M322.124,77.021a1.873,1.873,0,0,0,2.648-2.648,13.809,13.809,0,0,1,0-19.5,1.873,1.873,0,0,0-2.648-2.648A17.565,17.565,0,0,0,322.124,77.021Z" transform="translate(-273.292 -43.206)" fill="#da291c"/>
    <path id="Trazado_54" data-name="Trazado 54" d="M257.143,40.4a1.878,1.878,0,0,0,0-2.648,23.143,23.143,0,0,1,0-32.678A1.873,1.873,0,1,0,254.5,2.421a26.883,26.883,0,0,0,0,37.961A1.89,1.89,0,0,0,257.143,40.4Z" transform="translate(-212.257)" fill="#da291c"/>
    <path id="Trazado_55" data-name="Trazado 55" d="M67.4,135.4a1.865,1.865,0,0,0-1.867,1.867v34.664H60.948V168.2a5.611,5.611,0,0,0-5.6-5.6H7.6A5.6,5.6,0,0,0,2,168.2v11.2A5.611,5.611,0,0,0,7.6,185H55.334a5.611,5.611,0,0,0,5.6-5.6v-3.734h6.448a1.865,1.865,0,0,0,1.867-1.867V137.267A1.845,1.845,0,0,0,67.4,135.4Zm-10.2,44a1.865,1.865,0,0,1-1.867,1.867H7.6A1.865,1.865,0,0,1,5.734,179.4V168.2A1.865,1.865,0,0,1,7.6,166.33H29.594v3.257a1.867,1.867,0,1,0,3.734,0V166.33h5.535v3.257a1.867,1.867,0,1,0,3.734,0V166.33h5.535v3.257a1.867,1.867,0,1,0,3.734,0V166.33h3.469A1.865,1.865,0,0,1,57.2,168.2v11.2Z" transform="translate(0 -115.845)" fill="#da291c"/>
    <path id="Trazado_56" data-name="Trazado 56" d="M87.97,411.3h-3.4a1.867,1.867,0,0,0,0,3.734h3.4a1.867,1.867,0,0,0,0-3.734Z" transform="translate(-70.015 -355.214)" fill="#da291c"/>
  </g>
</svg>
