<svg xmlns="http://www.w3.org/2000/svg" width="57.558" height="46.464" viewBox="0 0 57.558 46.464">
  <g id="Grupo_112" data-name="Grupo 112" transform="translate(-2 -51)">
    <path id="Trazado_16" data-name="Trazado 16" d="M157.309,166.549l1.6-1.6v6.392a1.6,1.6,0,0,0,3.2,0v-6.38l1.6,1.6a1.6,1.6,0,0,0,2.267-2.267l-4.329-4.329a1.585,1.585,0,0,0-1.133-.465,1.634,1.634,0,0,0-1.133.465l-4.329,4.329a1.6,1.6,0,1,0,2.267,2.255Z" transform="translate(-135.284 -96.204)" fill="#da291c"/>
    <path id="Trazado_17" data-name="Trazado 17" d="M253.331,242.247l4.329,4.329a1.585,1.585,0,0,0,1.133.465,1.634,1.634,0,0,0,1.133-.465l4.329-4.329a1.6,1.6,0,0,0-2.267-2.267l-1.609,1.6V235.2a1.6,1.6,0,0,0-3.2,0v6.38l-1.6-1.587a1.595,1.595,0,1,0-2.255,2.255Z" transform="translate(-222.433 -161.907)" fill="#da291c"/>
    <path id="Trazado_18" data-name="Trazado 18" d="M54.776,51H6.794A4.8,4.8,0,0,0,2,55.794V92.67a4.8,4.8,0,0,0,4.794,4.794H54.765a4.8,4.8,0,0,0,4.794-4.794V55.794A4.779,4.779,0,0,0,54.776,51ZM12.868,94.268H6.794a1.6,1.6,0,0,1-1.6-1.6V55.794a1.6,1.6,0,0,1,1.6-1.6h6.074Zm32.638,0H16.064V54.2H45.495V94.268Zm10.868-1.6a1.6,1.6,0,0,1-1.6,1.6H48.7V54.2h6.074a1.6,1.6,0,0,1,1.6,1.6Z" fill="#da291c"/>
    <path id="Trazado_19" data-name="Trazado 19" d="M52.8,220.028a1.6,1.6,0,0,0,1.6-1.6V211.1a1.6,1.6,0,0,0-3.2,0v7.332A1.6,1.6,0,0,0,52.8,220.028Z" transform="translate(-43.624 -140.538)" fill="#da291c"/>
    <path id="Trazado_20" data-name="Trazado 20" d="M433.1,231.5a1.6,1.6,0,0,0-1.6,1.6v2.357a1.6,1.6,0,0,0,3.2,0V233.1A1.6,1.6,0,0,0,433.1,231.5Z" transform="translate(-380.826 -160.045)" fill="#da291c"/>
  </g>
</svg>
