<svg xmlns="http://www.w3.org/2000/svg" width="66.881" height="57.178" viewBox="0 0 66.881 57.178">
  <g id="Grupo_122" data-name="Grupo 122" transform="translate(-2 -74.7)">
    <g id="Grupo_5" data-name="Grupo 5" transform="translate(2 74.7)">
      <path id="Trazado_21" data-name="Trazado 21" d="M63.312,74.713h-.47V74.7H7.556A5.6,5.6,0,0,0,2,80.282v32.545A5.579,5.579,0,0,0,7.569,118.4H26.738v3.028H23.552a5.579,5.579,0,0,0-5.569,5.569v3.028a1.854,1.854,0,0,0,1.856,1.856h31.2a1.854,1.854,0,0,0,1.856-1.856v-3.028a5.579,5.579,0,0,0-5.569-5.569H44.143V118.4H63.312a5.579,5.579,0,0,0,5.569-5.569V80.282A5.579,5.579,0,0,0,63.312,74.713ZM47.329,125.151a1.854,1.854,0,0,1,1.856,1.856v1.172H21.7v-1.172a1.854,1.854,0,0,1,1.856-1.856h5.042a1.854,1.854,0,0,0,1.856-1.856v-4.9h9.966v4.9a1.854,1.854,0,0,0,1.856,1.856Zm15.983-10.467H7.569a1.854,1.854,0,0,1-1.856-1.856V105.81H9.294a1.856,1.856,0,0,0,0-3.713H5.713V98.411H11.94a1.856,1.856,0,1,0,0-3.713H5.713V80.282a1.854,1.854,0,0,1,1.856-1.856H63.286a1.854,1.854,0,0,1,1.856,1.856v32.545h.026A1.854,1.854,0,0,1,63.312,114.684Z" transform="translate(-2 -74.7)" fill="#da291c"/>
    </g>
    <g id="Grupo_6" data-name="Grupo 6" transform="translate(26.509 86.036)">
      <path id="Trazado_22" data-name="Trazado 22" d="M190.072,183.086a1.909,1.909,0,0,1-1.909-1.909V162.714a1.909,1.909,0,0,1,2.72-1.728l18.593,8.727a1.909,1.909,0,0,1,.074,3.419l-18.593,9.736A1.909,1.909,0,0,1,190.072,183.086Zm1.909-17.368v12.3l12.39-6.488Z" transform="translate(-188.163 -160.805)" fill="#da291c"/>
    </g>
  </g>
</svg>
