<svg xmlns="http://www.w3.org/2000/svg" width="52.569" height="44.942" viewBox="0 0 52.569 44.942">
  <g id="Grupo_115" data-name="Grupo 115" transform="translate(-2 -74.7)">
    <g id="Grupo_5" data-name="Grupo 5" transform="translate(2 74.7)">
      <path id="Trazado_21" data-name="Trazado 21" d="M50.191,74.71h-.369V74.7H6.367A4.4,4.4,0,0,0,2,79.088v25.581a4.385,4.385,0,0,0,4.377,4.377H21.444v2.38h-2.5a4.385,4.385,0,0,0-4.377,4.377v2.38a1.457,1.457,0,0,0,1.459,1.459H40.547a1.457,1.457,0,0,0,1.459-1.459V115.8a4.385,4.385,0,0,0-4.377-4.377h-2.5v-2.38H50.191a4.385,4.385,0,0,0,4.377-4.377V79.088A4.385,4.385,0,0,0,50.191,74.71ZM37.629,114.354a1.457,1.457,0,0,1,1.459,1.459v.921H17.481v-.921a1.457,1.457,0,0,1,1.459-1.459H22.9a1.457,1.457,0,0,0,1.459-1.459v-3.85H32.2v3.85a1.457,1.457,0,0,0,1.459,1.459Zm12.563-8.227H6.377a1.457,1.457,0,0,1-1.459-1.459V99.153H7.733a1.459,1.459,0,0,0,0-2.918H4.918v-2.9H9.813a1.459,1.459,0,1,0,0-2.918H4.918V79.088a1.457,1.457,0,0,1,1.459-1.459H50.171a1.457,1.457,0,0,1,1.459,1.459v25.581h.021A1.457,1.457,0,0,1,50.191,106.127Z" transform="translate(-2 -74.7)" fill="#da291c"/>
    </g>
    <g id="Grupo_6" data-name="Grupo 6" transform="translate(21.264 83.61)">
      <path id="Trazado_22" data-name="Trazado 22" d="M189.663,178.318a1.5,1.5,0,0,1-1.5-1.5V162.305a1.5,1.5,0,0,1,2.138-1.358l14.614,6.86a1.5,1.5,0,0,1,.058,2.688l-14.614,7.653A1.5,1.5,0,0,1,189.663,178.318Zm1.5-13.651v9.671l9.739-5.1Z" transform="translate(-188.163 -160.805)" fill="#da291c"/>
    </g>
  </g>
</svg>
