<svg xmlns="http://www.w3.org/2000/svg" width="56.111" height="56.1" viewBox="0 0 56.111 56.1">
  <g id="Grupo_118" data-name="Grupo 118" transform="translate(-2 -2)">
    <path id="Trazado_33" data-name="Trazado 33" d="M53.439,2H6.672A4.681,4.681,0,0,0,2,6.672V40.748A4.681,4.681,0,0,0,6.672,45.42H21.065l-1.546,3.093H14.426a1.556,1.556,0,0,0-1.557,1.557v6.473A1.556,1.556,0,0,0,14.426,58.1H45.685a1.556,1.556,0,0,0,1.557-1.557V50.07a1.556,1.556,0,0,0-1.557-1.557H40.593L39.047,45.42H53.439a4.681,4.681,0,0,0,4.672-4.672V6.672A4.681,4.681,0,0,0,53.439,2ZM39.632,51.638h4.5V55H15.984V51.638h4.5a1.558,1.558,0,0,0,1.392-.862l2.684-5.346h10.99l2.684,5.346A1.587,1.587,0,0,0,39.632,51.638ZM55,40.759a1.556,1.556,0,0,1-1.557,1.557H6.672a1.556,1.556,0,0,1-1.557-1.557V16.989H55v23.77Zm0-26.885H5.115v-7.2A1.556,1.556,0,0,1,6.672,5.115H53.428a1.556,1.556,0,0,1,1.557,1.557v7.2Z" fill="#da291c"/>
    <path id="Trazado_34" data-name="Trazado 34" d="M275.614,54.3h-1.756a1.557,1.557,0,1,0,0,3.115h1.756a1.557,1.557,0,0,0,0-3.115Z" transform="translate(-240.444 -46.523)" fill="#da291c"/>
    <path id="Trazado_35" data-name="Trazado 35" d="M345.914,54.3h-1.756a1.557,1.557,0,0,0,0,3.115h1.756a1.557,1.557,0,1,0,0-3.115Z" transform="translate(-302.979 -46.523)" fill="#da291c"/>
    <path id="Trazado_36" data-name="Trazado 36" d="M416.214,54.3h-1.756a1.557,1.557,0,1,0,0,3.115h1.756a1.557,1.557,0,0,0,0-3.115Z" transform="translate(-365.514 -46.523)" fill="#da291c"/>
    <path id="Trazado_37" data-name="Trazado 37" d="M131.74,201.159,133.3,199.6v6.406a1.557,1.557,0,0,0,3.115,0V199.6l1.557,1.557a1.562,1.562,0,0,0,2.209-2.209l-4.219-4.219a1.567,1.567,0,0,0-2.209,0l-4.219,4.219a1.562,1.562,0,0,0,2.209,2.209Z" transform="translate(-105.039 -171.037)" fill="#da291c"/>
  </g>
</svg>
