<svg xmlns="http://www.w3.org/2000/svg" width="60.925" height="60.926" viewBox="0 0 60.925 60.926">
  <g id="Grupo_116" data-name="Grupo 116" transform="translate(-2.007 -2)">
    <path id="Trazado_30" data-name="Trazado 30" d="M62.932,21.849A19.844,19.844,0,0,0,23.27,20.818H10.018a1.689,1.689,0,0,0-1.691,1.691V50.777L2.27,60.324a1.676,1.676,0,0,0,1.427,2.6H53.481a1.706,1.706,0,0,0,1.427-2.6l-6.057-9.547V40.8A19.7,19.7,0,0,0,62.932,21.849ZM48.852,32.931V29.2h1.283A23.019,23.019,0,0,1,48.852,32.931Zm2.039,3.406a23.849,23.849,0,0,0,2.722-7.124h4.2A16.333,16.333,0,0,1,50.891,36.337ZM59.55,21.849a16.238,16.238,0,0,1-.492,3.982H54.177a36.407,36.407,0,0,0,.228-3.982,35.775,35.775,0,0,0-.216-3.982h4.845A16.1,16.1,0,0,1,59.55,21.849Zm-1.763-7.364H53.625a23.982,23.982,0,0,0-2.734-7.124A16.547,16.547,0,0,1,57.787,14.485ZM44.774,5.838c2.159,1.1,4.222,4.222,5.349,8.647H44.774Zm-3.382,0v8.647H36.043C37.17,10.06,39.233,6.941,41.392,5.838Zm0,12.029v2.95H35.18c.036-1.019.1-2.015.216-2.95ZM35.275,7.361a23.982,23.982,0,0,0-2.734,7.124h-4.15A16.52,16.52,0,0,1,35.275,7.361ZM27.132,17.867h4.857c-.108.959-.168,1.955-.192,2.95H26.664A17.191,17.191,0,0,1,27.132,17.867ZM11.709,37.2h2.015a1.691,1.691,0,1,0,0-3.382H11.709V30.436h5.4a1.691,1.691,0,0,0,0-3.382h-5.4V24.212H45.47V49.6H11.709ZM50.4,59.544H6.779l4.162-6.56H46.249ZM47.161,20.818H44.774v-2.95h6a32.23,32.23,0,0,1,.252,3.982,31.553,31.553,0,0,1-.252,3.982H48.852v-3.31A1.7,1.7,0,0,0,47.161,20.818Z" transform="translate(0 0)" fill="#da291c"/>
    <path id="Trazado_31" data-name="Trazado 31" d="M240.192,288.459l-4.509,4.509v-1.463a1.691,1.691,0,0,0-3.382,0v5.553a1.689,1.689,0,0,0,1.691,1.691h5.553a1.691,1.691,0,1,0,0-3.382h-1.463l4.5-4.521a1.688,1.688,0,1,0-2.387-2.387Z" transform="translate(-202.673 -251.666)" fill="#da291c"/>
    <path id="Trazado_32" data-name="Trazado 32" d="M181.666,215.444a1.691,1.691,0,1,0,3.382,0v-5.553a1.689,1.689,0,0,0-1.691-1.691H177.8a1.691,1.691,0,1,0,0,3.382h1.475l-4.51,4.51a1.7,1.7,0,0,0,2.4,2.4l4.509-4.509v1.463Z" transform="translate(-151.607 -181.47)" fill="#da291c"/>
  </g>
</svg>
