<svg xmlns="http://www.w3.org/2000/svg" width="50.516" height="50.5" viewBox="0 0 50.516 50.5">
  <g id="Grupo_114" data-name="Grupo 114" transform="translate(-2 -2)">
    <path id="Trazado_23" data-name="Trazado 23" d="M51.114,2H19.869a1.4,1.4,0,0,0-1.4,1.4V19H3.4a1.4,1.4,0,0,0-1.4,1.4V41.955a1.4,1.4,0,0,0,1.4,1.4H6.495V51.1A1.342,1.342,0,0,0,7.36,52.4a1.372,1.372,0,0,0,1.531-.308l8.741-8.741H34.646a1.4,1.4,0,0,0,1.4-1.4V26.353h.835l8.741,8.741a1.429,1.429,0,0,0,1.531.308,1.4,1.4,0,0,0,.865-1.293V26.363h3.093a1.4,1.4,0,0,0,1.4-1.4V3.4A1.4,1.4,0,0,0,51.114,2ZM33.244,40.553h-16.2a1.442,1.442,0,0,0-.994.408L9.289,47.723V41.955a1.4,1.4,0,0,0-1.4-1.4H4.8V21.818h28.44Zm16.467-17H46.619a1.4,1.4,0,0,0-1.4,1.4v5.768l-6.762-6.762a1.407,1.407,0,0,0-.994-.408H36.048V20.416a1.4,1.4,0,0,0-1.4-1.4H21.272V4.8h28.44Z" fill="#da291c"/>
    <path id="Trazado_24" data-name="Trazado 24" d="M242.8,109.1h1.581a1.4,1.4,0,0,0,0-2.8H242.8a1.4,1.4,0,1,0,0,2.8Z" transform="translate(-215.594 -93.928)" fill="#da291c"/>
    <path id="Trazado_25" data-name="Trazado 25" d="M318.2,109.1h1.581a1.4,1.4,0,1,0,0-2.8H318.2a1.4,1.4,0,1,0,0,2.8Z" transform="translate(-283.496 -93.928)" fill="#da291c"/>
    <path id="Trazado_26" data-name="Trazado 26" d="M393.5,109.1h1.581a1.4,1.4,0,0,0,0-2.8H393.5a1.4,1.4,0,1,0,0,2.8Z" transform="translate(-351.308 -93.928)" fill="#da291c"/>
    <path id="Trazado_27" data-name="Trazado 27" d="M77.2,289.6h1.581a1.4,1.4,0,0,0,0-2.8H77.2a1.4,1.4,0,0,0,0,2.8Z" transform="translate(-66.461 -256.479)" fill="#da291c"/>
    <path id="Trazado_28" data-name="Trazado 28" d="M152.6,289.6h1.581a1.4,1.4,0,0,0,0-2.8H152.6a1.4,1.4,0,0,0,0,2.8Z" transform="translate(-134.363 -256.479)" fill="#da291c"/>
    <path id="Trazado_29" data-name="Trazado 29" d="M227.9,289.6h1.581a1.4,1.4,0,0,0,0-2.8H227.9a1.4,1.4,0,1,0,0,2.8Z" transform="translate(-202.176 -256.479)" fill="#da291c"/>
  </g>
</svg>
