<svg xmlns="http://www.w3.org/2000/svg" width="64.213" height="64.2" viewBox="0 0 64.213 64.2">
  <g id="Grupo_120" data-name="Grupo 120" transform="translate(-2 -2.1)">
    <path id="Trazado_39" data-name="Trazado 39" d="M342.006,379a1.781,1.781,0,0,0-1.783,1.783v5.6h-6.941a1.783,1.783,0,0,0,0,3.565h8.724a1.781,1.781,0,0,0,1.783-1.783v-7.383A1.789,1.789,0,0,0,342.006,379Z" transform="translate(-287.842 -329.249)" fill="#da291c"/>
    <path id="Trazado_40" data-name="Trazado 40" d="M46.869,7.448a19.1,19.1,0,0,0-8.142,1.808V7.448A5.358,5.358,0,0,0,33.379,2.1H7.348A5.358,5.358,0,0,0,2,7.448v53.5A5.358,5.358,0,0,0,7.348,66.3H33.367a5.358,5.358,0,0,0,5.348-5.348V44.365A19.356,19.356,0,1,0,46.869,7.448Zm14.059,12.2h-5.6a26.7,26.7,0,0,0-2.339-7.409A16.008,16.008,0,0,1,60.928,19.648ZM46.869,11.013c1.631,0,3.78,3.224,4.855,8.635h-9.7C43.089,14.237,45.238,11.013,46.869,11.013ZM35.149,60.952a1.781,1.781,0,0,1-1.783,1.783H7.348a1.781,1.781,0,0,1-1.783-1.783v-23.5h5.07a1.783,1.783,0,0,0,0-3.565H5.565V29.573H14.2a1.783,1.783,0,1,0,0-3.565H5.565V7.448A1.781,1.781,0,0,1,7.348,5.665H33.367a1.781,1.781,0,0,1,1.783,1.783v3.957a19.325,19.325,0,0,0,0,30.8Zm2.781-30.558H31.5a15.95,15.95,0,0,1-.43-3.591,15.337,15.337,0,0,1,.43-3.591h6.435c-.1,1.188-.152,2.389-.152,3.591S37.83,29.206,37.931,30.395ZM32.8,33.96h5.6a26.7,26.7,0,0,0,2.339,7.409A15.9,15.9,0,0,1,32.8,33.96Zm5.6-14.312H32.8a15.9,15.9,0,0,1,7.94-7.409A26.841,26.841,0,0,0,38.4,19.648Zm8.471,22.947c-1.631,0-3.78-3.224-4.855-8.635h9.7C50.637,39.384,48.487,42.595,46.869,42.595Zm5.361-12.2H41.509c-.1-1.138-.164-2.326-.164-3.591s.063-2.453.164-3.591H52.23c.1,1.138.164,2.326.164,3.591S52.331,29.257,52.23,30.395Zm.759,10.974a26.568,26.568,0,0,0,2.339-7.409h5.6A15.9,15.9,0,0,1,52.988,41.368Zm2.807-10.974c.1-1.188.152-2.389.152-3.591s-.051-2.389-.152-3.591H62.23a15.95,15.95,0,0,1,.43,3.591,15.337,15.337,0,0,1-.43,3.591Z" fill="#da291c"/>
    <path id="Trazado_41" data-name="Trazado 41" d="M120.687,57h-4.8a1.783,1.783,0,0,0,0,3.565h4.8a1.783,1.783,0,0,0,0-3.565Z" transform="translate(-97.927 -47.959)" fill="#da291c"/>
    <path id="Trazado_42" data-name="Trazado 42" d="M120.687,441.3h-4.8a1.783,1.783,0,0,0,0,3.565h4.8a1.783,1.783,0,0,0,0-3.565Z" transform="translate(-97.927 -383.673)" fill="#da291c"/>
  </g>
</svg>
