<svg xmlns="http://www.w3.org/2000/svg" width="73.823" height="73.823" viewBox="0 0 73.823 73.823">
  <g id="Grupo_121" data-name="Grupo 121" transform="translate(-2 -2)">
    <path id="Trazado_43" data-name="Trazado 43" d="M306.166,134H284.847a6.159,6.159,0,0,0-6.147,6.147v42.332a6.159,6.159,0,0,0,6.147,6.147h21.319a6.159,6.159,0,0,0,6.147-6.147V140.147A6.159,6.159,0,0,0,306.166,134Zm2.049,48.493a2.047,2.047,0,0,1-2.049,2.049H284.847a2.047,2.047,0,0,1-2.049-2.049V168.485h2.63a2.049,2.049,0,1,0,0-4.1H282.8V159.3h8.777a2.049,2.049,0,0,0,0-4.1H282.8V140.147a2.047,2.047,0,0,1,2.049-2.049h21.319a2.047,2.047,0,0,1,2.049,2.049v42.346Z" transform="translate(-236.49 -112.818)" fill="#da291c"/>
    <path id="Trazado_44" data-name="Trazado 44" d="M29.466,2H8.147A6.159,6.159,0,0,0,2,8.147V50.479A6.162,6.162,0,0,0,8.147,56.64H29.466a6.159,6.159,0,0,0,6.147-6.147V8.147A6.159,6.159,0,0,0,29.466,2Zm2.049,48.493a2.047,2.047,0,0,1-2.049,2.049H8.147A2.047,2.047,0,0,1,6.1,50.493V8.147A2.047,2.047,0,0,1,8.147,6.1H29.466a2.047,2.047,0,0,1,2.049,2.049Z" fill="#da291c"/>
    <path id="Trazado_45" data-name="Trazado 45" d="M369.481,182.8h-5.232a2.049,2.049,0,1,0,0,4.1h5.232a2.049,2.049,0,1,0,0-4.1Z" transform="translate(-307.856 -154.526)" fill="#da291c"/>
    <path id="Trazado_46" data-name="Trazado 46" d="M376.376,432.9h-2.427a2.049,2.049,0,1,0,0,4.1h2.441a2.047,2.047,0,0,0,2.049-2.049A2.078,2.078,0,0,0,376.376,432.9Z" transform="translate(-316.146 -368.281)" fill="#da291c"/>
    <path id="Trazado_47" data-name="Trazado 47" d="M94.93,52.949A2.047,2.047,0,0,0,92.881,50.9H87.649a2.049,2.049,0,1,0,0,4.1h5.232A2.065,2.065,0,0,0,94.93,52.949Z" transform="translate(-71.451 -41.794)" fill="#da291c"/>
    <path id="Trazado_48" data-name="Trazado 48" d="M57.29,301H54.849a2.049,2.049,0,1,0,0,4.1H57.29a2.049,2.049,0,1,0,0-4.1Z" transform="translate(-43.418 -255.549)" fill="#da291c"/>
    <path id="Trazado_49" data-name="Trazado 49" d="M141.99,301h-2.441a2.049,2.049,0,1,0,0,4.1h2.441a2.049,2.049,0,1,0,0-4.1Z" transform="translate(-115.809 -255.549)" fill="#da291c"/>
    <path id="Trazado_50" data-name="Trazado 50" d="M304.949,6.1h9.533v9.533a2.049,2.049,0,1,0,4.1,0V4.049A2.047,2.047,0,0,0,316.531,2H304.949a2.049,2.049,0,0,0,0,4.1Z" transform="translate(-257.173)" fill="#da291c"/>
    <path id="Trazado_51" data-name="Trazado 51" d="M114.831,413.682H105.3v-9.533a2.049,2.049,0,0,0-4.1,0v11.582a2.047,2.047,0,0,0,2.049,2.049h11.582a2.049,2.049,0,1,0,0-4.1Z" transform="translate(-84.784 -341.957)" fill="#da291c"/>
  </g>
</svg>
