<svg id="Grupo_113" data-name="Grupo 113" xmlns="http://www.w3.org/2000/svg" width="51.565" height="51.575" viewBox="0 0 51.565 51.575">
  <path id="Trazado_2" data-name="Trazado 2" d="M105.528,272.435v-4.9A1.43,1.43,0,0,0,104.1,266.1h-4.9a1.432,1.432,0,0,0,0,2.863h1.452l-5.35,5.34a1.436,1.436,0,0,0,2.031,2.031l5.34-5.34v1.452a1.432,1.432,0,1,0,2.863-.01Z" transform="translate(-85.446 -239.287)" fill="#da291c"/>
  <path id="Trazado_3" data-name="Trazado 3" d="M34.58,2a18.926,18.926,0,0,0-12.6,4.782H6.295A4.3,4.3,0,0,0,2,11.087V49.281a4.3,4.3,0,0,0,4.295,4.295H27.209A4.3,4.3,0,0,0,31.5,49.281V39.727a19.432,19.432,0,0,0,3.066.264A19,19,0,0,0,34.58,2ZM28.651,49.281a1.43,1.43,0,0,1-1.432,1.432H6.3a1.43,1.43,0,0,1-1.432-1.432V27.605H7.046a1.432,1.432,0,0,0,0-2.863H4.863V21.727H11.33a1.432,1.432,0,0,0,0-2.863H4.863V11.087A1.43,1.43,0,0,1,6.295,9.655H27.209a1.43,1.43,0,0,1,1.432,1.432V49.281Zm.365-42.093a4.268,4.268,0,0,0-1.8-.4h-.244a16.3,16.3,0,0,1,2.812-1.178A13.378,13.378,0,0,0,29.016,7.188Zm19.625,5.919a15.873,15.873,0,0,1,2,6.457H42.479a45.25,45.25,0,0,0-.457-5.33A66.25,66.25,0,0,0,48.641,13.107Zm-1.777-2.548c-1.777.365-3.564.64-5.361.843a21.964,21.964,0,0,0-2.081-5.8A16.138,16.138,0,0,1,46.865,10.559Zm-7.249,9.005h-8.1V14.589c1.025.051,2.051.081,3.076.081,1.523,0,3.056-.061,4.569-.173A41.162,41.162,0,0,1,39.616,19.564ZM31.2,9.472c1.1-3.178,2.467-4.609,3.381-4.609,1.3,0,2.965,2.487,4.02,6.792a61.107,61.107,0,0,1-7.087.051v-.629A4.222,4.222,0,0,0,31.2,9.472ZM34.58,37.118c-.772,0-1.97-.995-3.066-3.756v-3.1a63.452,63.452,0,0,1,7.087.051C37.544,34.631,35.879,37.118,34.58,37.118ZM31.514,27.4V22.417h8.1a41.259,41.259,0,0,1-.447,5.066A68.753,68.753,0,0,0,31.514,27.4Zm7.909,8.975a21.964,21.964,0,0,0,2.081-5.8c1.8.2,3.584.477,5.361.843A16.061,16.061,0,0,1,39.423,36.377Zm9.219-7.493a63.915,63.915,0,0,0-6.62-1.127,45.25,45.25,0,0,0,.457-5.33h8.163A15.921,15.921,0,0,1,48.641,28.884Z" transform="translate(-2 -2)" fill="#da291c"/>
  <path id="Trazado_4" data-name="Trazado 4" d="M121.632,102.463h3.33a1.432,1.432,0,0,0,0-2.863h-3.33a1.432,1.432,0,0,0,0,2.863Z" transform="translate(-108.2 -89.691)" fill="#da291c"/>
  <path id="Trazado_5" data-name="Trazado 5" d="M64.52,431.3H62.632a1.432,1.432,0,1,0,0,2.863h1.9a1.43,1.43,0,0,0,1.432-1.432A1.452,1.452,0,0,0,64.52,431.3Z" transform="translate(-55.19 -387.715)" fill="#da291c"/>
  <path id="Trazado_6" data-name="Trazado 6" d="M189.93,431.3h-1.9a1.432,1.432,0,0,0,0,2.863h1.9a1.432,1.432,0,1,0,0-2.863Z" transform="translate(-167.858 -387.715)" fill="#da291c"/>
</svg>
